<?xml version="1.0" encoding="UTF-8"?>
<svg width="32px" height="32px" viewBox="0 0 32 32" version="1.1" xmlns="http://www.w3.org/2000/svg" xmlns:xlink="http://www.w3.org/1999/xlink">
    <title>Preset</title>
    <g id="selfmade" stroke="none" stroke-width="1" fill="none" fill-rule="evenodd">
        <g id="Preset" transform="translate(-2, 0)" fill-rule="nonzero">
            <polygon id="Path" fill="#FFFFFF" points="4 6 28 6 28 30 4 30"></polygon>
            <path d="M2,4 L2,32 L30,32 L30,4 L2,4 Z M4,6 L28,6 L28,30 L4,30 L4,6 Z" id="Shape" fill="#999999"></path>
            <g id="gears-solid" transform="translate(6, 0)" fill="#0091FF">
                <path d="M13.5841094,5.59745642 C13.9005014,5.32044168 14.0252757,4.88513282 13.8603954,4.4981916 C13.7579022,4.26514746 13.6464965,4.03650038 13.5217222,3.81664742 L13.3835792,3.57920622 C13.2498924,3.35935326 13.102837,3.14389736 12.9468691,2.93723557 C12.6928642,2.60305907 12.2472416,2.49313259 11.8461813,2.62504437 L10.5895256,3.03397088 C10.1127094,2.64702966 9.56459365,2.3304414 8.97637183,2.1149855 L8.70454206,0.839838315 C8.61987376,0.430911806 8.2990255,0.105529422 7.88014027,0.0571617701 C7.58602937,0.017588237 7.28746223,0 6.98443888,0 L6.9532453,0 C6.65022194,0 6.35165481,0.017588237 6.0575439,0.0527647109 C5.63865867,0.101132363 5.31781041,0.430911806 5.23314212,0.835441256 L4.96131234,2.1149855 C4.3686343,2.33483846 3.82497475,2.64702966 3.34815858,3.03397088 L2.08704666,2.62944143 C1.68598634,2.49752965 1.24036375,2.60745613 0.986358878,2.94163263 C0.830390973,3.14829442 0.68333552,3.36375032 0.545192519,3.58360328 L0.411505743,3.81664742 C0.286731419,4.03650038 0.175325773,4.26514746 0.0728325782,4.50258866 C-0.0920477783,4.88513282 0.0327265456,5.32044168 0.349118581,5.60185347 L1.33840072,6.4724712 C1.28938224,6.76707417 1.26264488,7.07486832 1.26264488,7.38705953 C1.26264488,7.69925073 1.28938224,8.00704488 1.33840072,8.30604491 L0.349118581,9.17666264 C0.0327265456,9.45367737 -0.0920477783,9.88898624 0.0728325782,10.2759274 C0.175325773,10.5089716 0.286731419,10.7376187 0.411505743,10.9618687 L0.545192519,11.1905158 C0.678879294,11.4147658 0.825934747,11.6258246 0.986358878,11.8324864 C1.24036375,12.1666629 1.68598634,12.2765894 2.08704666,12.1446776 L3.34370235,11.7357511 C3.82051852,12.1226923 4.3686343,12.4392806 4.95685611,12.6547365 L5.22868589,13.9342807 C5.31335418,14.3432072 5.63420244,14.6685896 6.05308767,14.7169573 C6.35165481,14.7521338 6.65467816,14.769722 6.96215775,14.769722 C7.26963733,14.769722 7.57266069,14.7521338 7.87122782,14.7169573 C8.29011305,14.6685896 8.61096131,14.3388102 8.6956296,13.9342807 L8.96745938,12.6547365 C9.56013742,12.4348835 10.103797,12.1226923 10.5806131,11.7357511 L11.8372688,12.1446776 C12.2383292,12.2765894 12.6839517,12.1666629 12.9379566,11.8324864 C13.0939245,11.6258246 13.24098,11.4147658 13.3746667,11.1905158 L13.5128098,10.9530746 C13.6375841,10.7332216 13.7489897,10.5045745 13.8514829,10.2715304 C14.0163633,9.88898624 13.8915889,9.45367737 13.5751969,9.17226558 L12.5859148,8.30164785 C12.6349333,8.00264782 12.6616706,7.69485367 12.6616706,7.38266247 C12.6616706,7.07047126 12.6349333,6.76267711 12.5859148,6.46367709 L13.5751969,5.59305936 L13.5841094,5.59745642 Z M4.82762556,7.38705953 C4.82762556,6.22141372 5.78528329,5.27647109 6.96661397,5.27647109 C8.14794465,5.27647109 9.10560238,6.22141372 9.10560238,7.38705953 C9.10560238,8.55270533 8.14794465,9.49764796 6.96661397,9.49764796 C5.78528329,9.49764796 4.82762556,8.55270533 4.82762556,7.38705953 L4.82762556,7.38705953 Z M22.3272245,21.6555168 C22.6079667,21.967708 23.0491331,22.0908256 23.441281,21.9281344 C23.6774609,21.8270021 23.9091847,21.7170756 24.131996,21.5939579 L24.3726322,21.4576491 C24.5954434,21.3257373 24.8137985,21.1806344 25.0232411,21.0267373 C25.3619143,20.7761049 25.4733199,20.336399 25.3396332,19.9406637 L24.9252042,18.700693 C25.317352,18.2302076 25.6382003,17.6893693 25.8565554,17.1089575 L27.1533171,16.8407369 C27.5677461,16.7571928 27.8975068,16.4406045 27.9465253,16.0272809 C27.9821751,15.732678 28,15.4336779 28,15.1302809 C28,14.8268838 27.9821751,14.5278837 27.9465253,14.2332808 C27.8975068,13.8199572 27.5632899,13.5033689 27.1533171,13.4198248 L25.8565554,13.1472071 C25.6337441,12.5623983 25.317352,12.025957 24.9252042,11.5554717 L25.3396332,10.315501 C25.4733199,9.91976565 25.3619143,9.48005973 25.0232411,9.22942735 C24.8137985,9.07553028 24.5954434,8.93042732 24.3726322,8.79411848 L24.1364522,8.66220671 C23.9136409,8.53908905 23.6819171,8.42916257 23.441281,8.3280302 C23.0535893,8.16533901 22.6124229,8.28845667 22.3272245,8.60064788 L21.4448918,9.57679503 C21.1418684,9.52842738 20.8299326,9.50204502 20.5135406,9.50204502 C20.1971485,9.50204502 19.8852127,9.52842738 19.5821894,9.57679503 L18.6998566,8.60064788 C18.4191144,8.28845667 17.9779481,8.16533901 17.5858002,8.3280302 C17.3496202,8.42916257 17.1178965,8.53908905 16.8906289,8.66220671 L16.6589052,8.79411848 C16.4316377,8.92603026 16.2177388,9.07113322 16.0082962,9.22942735 C15.6696231,9.48005973 15.5582174,9.91976565 15.6919042,10.315501 L16.1063332,11.5554717 C15.7141853,12.025957 15.3933371,12.5667953 15.174982,13.1472071 L13.8782203,13.4110307 C13.4637913,13.4945748 13.1340306,13.8111631 13.0850121,14.2244866 C13.0493623,14.5190896 13.0315374,14.8180896 13.0315374,15.1214867 C13.0315374,15.4248838 13.0493623,15.7238839 13.0850121,16.0184868 C13.1340306,16.4318104 13.4682475,16.7483987 13.8782203,16.8319428 L15.174982,17.1001634 C15.3977933,17.6849723 15.7141853,18.2214135 16.1063332,18.6918988 L15.6919042,19.9318695 C15.5582174,20.3276049 15.6696231,20.7673108 16.0082962,21.0179432 C16.2177388,21.1718403 16.4316377,21.3169432 16.6589052,21.448855 L16.8995414,21.5851638 C17.1223527,21.7082815 17.3540764,21.818208 17.5902564,21.9193403 C17.9779481,22.0820315 18.4191144,21.9589139 18.7043129,21.6467226 L19.5866456,20.6705755 C19.8896689,20.7189431 20.2016048,20.7453255 20.5179968,20.7453255 C20.8343888,20.7453255 21.1463246,20.7189431 21.449348,20.6705755 L22.3316807,21.6467226 L22.3272245,21.6555168 Z M20.5135406,13.0152954 C21.2777275,13.0152954 21.9838654,13.4175712 22.3659589,14.0705896 C22.7480524,14.7236079 22.7480524,15.5281597 22.3659589,16.181178 C21.9838654,16.8341964 21.2777275,17.2364722 20.5135406,17.2364722 C19.3322099,17.2364722 18.3745522,16.2915296 18.3745522,15.1258838 C18.3745522,13.960238 19.3322099,13.0152954 20.5135406,13.0152954 L20.5135406,13.0152954 Z" id="Shape"></path>
            </g>
            <path d="M0,2 L0,34 L32,34 L32,2 L0,2 Z M2,4 L30,4 L30,32 L2,32 L2,4 Z" id="Shape" fill-opacity="0" fill="#999999"></path>
        </g>
    </g>
</svg>