<?xml version="1.0" encoding="UTF-8"?>
<svg width="16px" height="15px" viewBox="0 0 16 15" version="1.1" xmlns="http://www.w3.org/2000/svg" xmlns:xlink="http://www.w3.org/1999/xlink">
    <title>PresetFolder</title>
    <g id="selfmade" stroke="none" stroke-width="1" fill="none" fill-rule="evenodd">
        <g id="PresetFolder">
            <polygon id="Path" fill="#888888" fill-rule="nonzero" points="0 3 0 15 12.69 15 12.69 4.81 5.08 4.81 3.95 3"></polygon>
            <rect id="Rectangle" fill="#515151" x="2" y="3" width="11" height="9"></rect>
            <g id="Preset" transform="translate(2, 0)" fill-rule="nonzero">
                <polygon id="Path" fill="#FFFFFF" points="1.41176471 2.11764706 9.88235294 2.11764706 9.88235294 10.5882353 1.41176471 10.5882353"></polygon>
                <path d="M0.705882353,1.41176471 L0.705882353,11.2941176 L10.5882353,11.2941176 L10.5882353,1.41176471 L0.705882353,1.41176471 Z M1.41176471,2.11764706 L9.88235294,2.11764706 L9.88235294,10.5882353 L1.41176471,10.5882353 L1.41176471,2.11764706 Z" id="Shape" fill="#999999"></path>
                <g id="gears-solid" transform="translate(2.1176, 0)" fill="#0091FF">
                    <path d="M4.79439154,1.97557285 C4.90605932,1.87780295 4.95009731,1.72416452 4.89190425,1.58759704 C4.85573018,1.50534616 4.81641054,1.42464719 4.77237254,1.34705203 L4.72361619,1.26324926 C4.67643262,1.18565409 4.6245307,1.10961083 4.5694832,1.03667138 C4.47983442,0.918726731 4.32255586,0.87992915 4.18100516,0.926486247 L3.73747962,1.07081325 C3.56919156,0.934245764 3.37573893,0.822508729 3.16813124,0.746465469 L3.07219131,0.296413523 C3.04230839,0.15208652 2.92906782,0.0372456783 2.78122598,0.0201747424 C2.67742213,0.00620761305 2.57204549,0 2.46509607,0 L2.45408657,0 C2.34713715,0 2.24176052,0.00620761305 2.13795667,0.0186228391 C1.99011482,0.035693775 1.87687426,0.15208652 1.84699134,0.29486162 L1.75105141,0.746465469 C1.54187093,0.824060632 1.34999109,0.934245764 1.18170303,1.07081325 L0.736604705,0.928038151 C0.595054001,0.881481053 0.437775442,0.920278634 0.348126663,1.03822328 C0.293079167,1.11116274 0.241177242,1.187206 0.192420889,1.26480116 L0.145237321,1.34705203 C0.101199324,1.42464719 0.0618796845,1.50534616 0.0257056158,1.58914894 C-0.0324874512,1.72416452 0.0115505455,1.87780295 0.123218323,1.97712476 L0.472376725,2.2844016 C0.455076083,2.38837912 0.44563937,2.49701235 0.44563937,2.60719748 C0.44563937,2.71738261 0.455076083,2.82601584 0.472376725,2.93154526 L0.123218323,3.23882211 C0.0115505455,3.33659201 -0.0324874512,3.49023044 0.0257056158,3.62679792 C0.0618796845,3.7090488 0.101199324,3.78974777 0.145237321,3.86889483 L0.192420889,3.9495938 C0.239604457,4.02874087 0.291506381,4.10323222 0.348126663,4.17617168 C0.437775442,4.29411633 0.595054001,4.33291391 0.736604705,4.28635681 L1.18013024,4.14202981 C1.3484183,4.27859729 1.54187093,4.39033433 1.74947863,4.46637759 L1.84541855,4.91798144 C1.87530148,5.06230844 1.98854204,5.17714928 2.13638388,5.19422022 C2.24176052,5.20663544 2.34870994,5.21284306 2.45723215,5.21284306 C2.56575435,5.21284306 2.67270377,5.20663544 2.77808041,5.19422022 C2.92592225,5.17714928 3.03916282,5.06075654 3.06904574,4.91798144 L3.16498566,4.46637759 C3.37416615,4.38878242 3.56604599,4.27859729 3.73433405,4.14202981 L4.17785959,4.28635681 C4.31941029,4.33291391 4.47668885,4.29411633 4.56633763,4.17617168 C4.62138513,4.10323222 4.67328705,4.02874087 4.72047062,3.9495938 L4.76922697,3.86579103 C4.81326497,3.78819586 4.85258461,3.70749689 4.88875868,3.62524602 C4.94695174,3.49023044 4.90291375,3.33659201 4.79124597,3.2372702 L4.44208757,2.92999336 C4.45938821,2.82446394 4.46882492,2.71583071 4.46882492,2.60564558 C4.46882492,2.49546045 4.45938821,2.38682722 4.44208757,2.2812978 L4.79124597,1.97402095 L4.79439154,1.97557285 Z M1.70386785,2.60719748 C1.70386785,2.19579308 2.04186469,1.86228391 2.45880493,1.86228391 C2.87574517,1.86228391 3.21374202,2.19579308 3.21374202,2.60719748 C3.21374202,3.01860188 2.87574517,3.35211105 2.45880493,3.35211105 C2.04186469,3.35211105 1.70386785,3.01860188 1.70386785,2.60719748 L1.70386785,2.60719748 Z M7.88019688,7.64312357 C7.97928237,7.7533087 8.13498814,7.79676199 8.27339328,7.73934157 C8.35675091,7.70364779 8.43853576,7.66485021 8.51717504,7.62139692 L8.60210547,7.57328792 C8.68074475,7.52673082 8.75781124,7.47551801 8.83173216,7.4212014 C8.95126387,7.33274291 8.99058351,7.17755259 8.94339994,7.03788129 L8.79713088,6.60024457 C8.93553601,6.43419092 9.04877658,6.24330682 9.12584307,6.03845559 L9.58352368,5.94378949 C9.72979274,5.91430333 9.84617887,5.8025663 9.86347951,5.65668739 C9.8760618,5.55270987 9.88235294,5.44718045 9.88235294,5.34009912 C9.88235294,5.2330178 9.8760618,5.12748838 9.86347951,5.02351086 C9.84617887,4.87763195 9.72821995,4.76589492 9.58352368,4.73640876 L9.12584307,4.64019075 C9.04720379,4.43378762 8.93553601,4.24445542 8.79713088,4.07840177 L8.94339994,3.64076505 C8.99058351,3.50109376 8.95126387,3.34590343 8.83173216,3.25744495 C8.75781124,3.20312833 8.68074475,3.15191553 8.60210547,3.10380652 L8.51874783,3.05724943 C8.44010855,3.01379613 8.3583237,2.97499855 8.27339328,2.93930478 C8.13656093,2.88188436 7.98085516,2.92533765 7.88019688,3.03552278 L7.56878533,3.3800453 C7.46183591,3.36297437 7.35174092,3.35366295 7.24007314,3.35366295 C7.12840536,3.35366295 7.01831037,3.36297437 6.91136095,3.3800453 L6.5999494,3.03552278 C6.50086391,2.92533765 6.34515814,2.88188436 6.20675301,2.93930478 C6.12339537,2.97499855 6.04161052,3.01379613 5.96139845,3.05724943 L5.8796136,3.10380652 C5.79940154,3.15036362 5.72390783,3.20157643 5.6499869,3.25744495 C5.5304552,3.34590343 5.49113556,3.50109376 5.53831913,3.64076505 L5.68458819,4.07840177 C5.54618306,4.24445542 5.43294249,4.43533952 5.355876,4.64019075 L4.89819539,4.73330495 C4.75192633,4.76279111 4.6355402,4.87452815 4.61823955,5.02040705 C4.60565727,5.12438457 4.59936613,5.22991399 4.59936613,5.33699532 C4.59936613,5.44407664 4.60565727,5.54960606 4.61823955,5.65358358 C4.6355402,5.79946249 4.75349912,5.91119952 4.89819539,5.94068569 L5.355876,6.03535179 C5.43451528,6.24175492 5.54618306,6.43108712 5.68458819,6.59714077 L5.53831913,7.03477749 C5.49113556,7.17444878 5.5304552,7.32963911 5.6499869,7.41809759 C5.72390783,7.47241421 5.79940154,7.52362701 5.8796136,7.57018411 L5.96454402,7.61829311 C6.0431833,7.6617464 6.12496815,7.70054399 6.20832579,7.73623776 C6.34515814,7.79365818 6.50086391,7.75020489 6.60152219,7.64001976 L6.91293374,7.29549723 C7.01988316,7.31256817 7.12997815,7.32187959 7.24164593,7.32187959 C7.3533137,7.32187959 7.4634087,7.31256817 7.57035812,7.29549723 L7.88176966,7.64001976 L7.88019688,7.64312357 Z M7.24007314,4.59363366 C7.50978619,4.59363366 7.75901133,4.73561337 7.89386785,4.96609043 C8.02872438,5.19656749 8.02872438,5.48052695 7.89386785,5.71100401 C7.75901133,5.94148107 7.50978619,6.08346079 7.24007314,6.08346079 C6.8231329,6.08346079 6.48513606,5.74995162 6.48513606,5.33854722 C6.48513606,4.92714282 6.8231329,4.59363366 7.24007314,4.59363366 L7.24007314,4.59363366 Z" id="Shape"></path>
                </g>
                <path d="M0,0.705882353 L0,12 L11.2941176,12 L11.2941176,0.705882353 L0,0.705882353 Z M0.705882353,1.41176471 L10.5882353,1.41176471 L10.5882353,11.2941176 L0.705882353,11.2941176 L0.705882353,1.41176471 Z" id="Shape" fill-opacity="0" fill="#999999"></path>
            </g>
            <polygon id="Path" fill="#AAAAAA" fill-rule="nonzero" points="8.26 7.08 6.55 8.4 2.53 8.4 0 15 12.96 15 16 7.08"></polygon>
        </g>
    </g>
</svg>